Coordinates
version=1
nRows=6
nColumns=40
inDegrees=yes

Units are S.I. units (second, meters, Newtons, ...)
If the header above contains a line with 'inDegrees', this indicates whether rotational values are in degrees (yes) or radians (no).

endheader
time	pelvis_tilt	pelvis_list	pelvis_rotation	pelvis_tx	pelvis_ty	pelvis_tz	hip_flexion_r	hip_adduction_r	hip_rotation_r	knee_angle_r	knee_angle_r_beta	ankle_angle_r	subtalar_angle_r	mtp_angle_r	hip_flexion_l	hip_adduction_l	hip_rotation_l	knee_angle_l	knee_angle_l_beta	ankle_angle_l	subtalar_angle_l	mtp_angle_l	lumbar_extension	lumbar_bending	lumbar_rotation	arm_flex_r	arm_add_r	arm_rot_r	elbow_flex_r	pro_sup_r	wrist_flex_r	wrist_dev_r	arm_flex_l	arm_add_l	arm_rot_l	elbow_flex_l	pro_sup_l	wrist_flex_l	wrist_dev_l
      5.15000000000000035527	     13.82134945020863092680	      2.01875152531623225372	   -173.63749092941239382526	      0.39847241079071388237	      0.73802231368470150308	     -0.96982850416356158885	     40.63537257789177203904	    -44.20028960778412141508	    -35.62676715194355381300	     37.70651892219120782102	      0.65810290465778009672	    -12.91261931220005720888	      0.00000000000000000000	      0.00000000000000000000	     46.55495812855303938704	    -37.77119777609581774414	    -25.43690317887513430151	     25.46845792576749900604	      0.44450844621028845483	    -21.63983128681555712092	      0.00000000000000000000	      0.00000000000000000000	    -51.92348199492553106893	      7.70663960505653111710	     -0.51409953575273070747	     56.02161934091525807844	     -5.72899657800220918347	     24.73640252551479434828	      1.51697021868214165785	     75.61390881439086797400	      0.00000000000000000000	      0.00000000000000000000	     49.97259477937790705937	     -4.30267312879375740664	     12.70391923045528592695	      1.10008179506310321827	      4.99974701538563248704	      0.00000000000000000000	      0.00000000000000000000
      5.15500000000000024869	     13.98584386001961199497	      2.02930723709987459458	   -173.67838814410839631819	      0.39860307980637360581	      0.73869237794241715545	     -0.96957049574664644354	     40.63124130476284534552	    -44.04403549879475576745	    -35.67352386582377476998	     37.30771673586782810617	      0.65114249344228525285	    -13.12222561120556996173	      0.00000000000000000000	      0.00000000000000000000	     46.50779128083454594389	    -37.66025958734117295990	    -25.54568097363734935357	     25.15323181557854326229	      0.43900671269923668971	    -21.78439977112265069081	      0.00000000000000000000	      0.00000000000000000000	    -51.55908245464988226558	      7.66695608586004428986	     -0.54037273371211447248	     55.82552993096211224611	     -5.80226222242480460523	     24.89781416637414679371	      1.51357413592454204121	     76.51158630979635688618	      0.00000000000000000000	      0.00000000000000000000	     50.01760245123439574400	     -4.31884944775311918619	     11.75446302237955897851	      1.11564869508041009105	      5.02261377777009077050	      0.00000000000000000000	      0.00000000000000000000
      5.16000000000000014211	     14.13254187610790246765	      2.08579061691251022026	   -173.72345867938690844312	      0.39874435594943535843	      0.73933407199569123325	     -0.96925314844234500278	     40.60663475726065030358	    -43.84819752619294064289	    -35.73337421697722504632	     36.93248100291273061657	      0.64459339443108465417	    -13.35969529766228625078	      0.00000000000000000000	      0.00000000000000000000	     46.48545005740419355789	    -37.58817046700480801746	    -25.59451909846024975081	     24.85451673321857413157	      0.43379315098668924655	    -21.90481912395860319975	      0.00000000000000000000	      0.00000000000000000000	    -51.19436803388594370290	      7.68071817533867662320	     -0.55127694393518755778	     55.59471246693490797952	     -5.78042734601219354573	     25.30546544161456168354	      1.50968356160708916391	     75.12058493209291043513	      0.00000000000000000000	      0.00000000000000000000	     49.73588516597032338495	     -4.29452394486807964569	     12.13779985520625537276	      1.11476666492063825054	      4.85728587803124423061	      0.00000000000000000000	      0.00000000000000000000
      5.16500000000000003553	     14.29209283428044052755	      2.03843934200828469372	   -173.76910987431318744711	      0.39887396922039969338	      0.73995021721504672385	     -0.96898960210128448622	     40.66357580205541921714	    -43.75847415151769581598	    -35.70963438555426705534	     36.58747505975244251886	      0.63857190478398917488	    -13.58997760606986382470	      0.00000000000000000000	      0.00000000000000000000	     46.39281579220129003716	    -37.42665512389474713473	    -25.70752216038450654878	     24.52575680395531421141	      0.42805520777242167529	    -22.06673356985828604593	      0.00000000000000000000	      0.00000000000000000000	    -50.81363926823687648948	      7.59198055054168730038	     -0.69256188746462210570	     55.31500575342761294451	     -5.70914281687923352848	     25.87884110858891872908	      1.53633217329228455306	     73.46177141313778236054	      0.00000000000000000000	      0.00000000000000000000	     49.52789154491468082142	     -4.36971465898458699684	     12.06798344645387821572	      1.12961725193101658604	      4.86748256409600532635	      0.00000000000000000000	      0.00000000000000000000
      5.16999999999999992895	     14.35582459168408497874	      2.11165516013334642054	   -173.78481432667436479278	      0.39885790581633479013	      0.74076271125075843216	     -0.96860264170037169151	     40.48615693945357918437	    -43.57387644530153636424	    -35.89372412134384404681	     36.20338420777475363366	      0.63186825479018837726	    -13.85295063772723800355	      0.00000000000000000000	      0.00000000000000000000	     46.30884460070081587446	    -37.37752052710876427000	    -25.79454507126812146112	     24.26185959952858084421	      0.42344933266836665142	    -22.16350818139805056717	      0.00000000000000000000	      0.00000000000000000000	    -50.53010200722662403905	      7.64284762207746215523	     -0.65046657872393798261	     55.06099824341142578987	     -5.74717673320237754098	     26.27129883747004512884	      1.56722666580607228326	     72.09415819169507244624	      0.00000000000000000000	      0.00000000000000000000	     49.30098760850424355340	     -4.30520982093122395185	     12.21772415148945256647	      1.11550919522443736653	      4.97419865492245527605	      0.00000000000000000000	      0.00000000000000000000
      5.17499999999999982236	     14.50909785198494894587	      2.04423305625627449444	   -173.82987213388869918163	      0.39895237407804301499	      0.74136321187599540927	     -0.96827957483398319205	     40.56705609373086218739	    -43.51554608422080860919	    -35.84567481183682247092	     35.89565312059989565796	      0.62649733410824537394	    -14.05730054212583013395	      0.00000000000000000000	      0.00000000000000000000	     46.19180421967264749128	    -37.21039716080878179127	    -26.00708456122423939405	     23.97080999245579491230	      0.41836955873831072061	    -22.23224933795196633923	      0.00000000000000000000	      0.00000000000000000000	    -50.15924722422332138194	      7.54463297027305923592	     -0.67364558608278390928	     54.95719324412620210296	     -5.99070700025753311024	     25.33336313382985949261	      1.52767674279235121659	     76.65946230530666127834	      0.00000000000000000000	      0.00000000000000000000	     48.95258813439163247949	     -4.23604300994067273223	     13.36918492865582130946	      1.11886018295577760462	      4.97683883532733517541	      0.00000000000000000000	      0.00000000000000000000
